<svg width="548" height="156" fill="none" xmlns="http://www.w3.org/2000/svg"><rect width="548" height="156" rx="40" fill="#27292F"/><path d="M114.035 62.366c-11.2 7.93-11.593 23.591 1.965 31.124-2.358 6.939-5.895 13.085-11.2 18.041-3.144 2.775-6.878 3.172-10.611 1.387-5.698-2.577-11.004-2.577-16.702 0-3.537 1.785-7.27 1.388-10.218-1.387C57.248 102.61 50.174 83.578 54.104 69.9c2.554-9.12 10.021-15.067 18.667-14.869 1.768 0 3.733.397 5.305 1.19 4.716 2.379 9.432 2.18 14.148 0 4.126-1.983 8.646-1.983 13.165-.397 3.537 1.19 6.485 3.172 8.646 6.542Zm-29.474-8.722C83.775 45.119 90.848 36.793 99.69 36c1.965 6.74-5.699 18.437-15.13 17.644Z" fill="#fff"/><path d="M175.54 56h6.27c4.14 0 6.84-1.59 6.84-5.04 0-2.43-1.44-3.9-3.63-4.59 1.74-.66 2.97-1.98 2.97-4.2 0-3.18-2.34-4.89-6.48-4.89h-5.97c-.48 0-.78.27-.78.78v17.16c0 .48.27.78.78.78Zm1.62-10.53V39.5h4.11c2.76 0 4.38.72 4.38 2.88 0 2.13-1.56 3.09-4.38 3.09h-4.11Zm0 8.31v-6.06h4.41c2.97 0 4.68.96 4.68 3.15 0 2.13-1.71 2.91-4.68 2.91h-4.41Zm17.937 2.55c2.58 0 4.23-1.08 5.13-2.49.03.48.12.99.21 1.5.09.48.42.66.87.66h.42c.48 0 .78-.3.78-.78v-7.56c0-4.05-2.76-6-5.94-6-2.28 0-3.9.45-5.49 1.74-.21.18-.33.36-.33.57 0 .18.09.36.24.54l.3.36c.18.21.36.3.57.3.18 0 .33-.06.51-.18 1.29-.9 2.52-1.17 4.02-1.17 2.07 0 3.72 1.08 3.72 4.17v.36c-1.23-.48-2.64-.72-4.17-.72-3.9 0-5.88 1.92-5.88 4.5 0 2.46 1.83 4.2 5.04 4.2Zm.24-2.13c-1.56 0-2.88-.48-2.88-2.13 0-1.53.96-2.46 3.84-2.46 1.35 0 2.49.15 3.81.54v.18c-.09 2.25-1.83 3.87-4.77 3.87Zm11.939-15c.93 0 1.59-.72 1.59-1.65 0-.93-.66-1.65-1.59-1.65-.96 0-1.65.72-1.65 1.65 0 .93.69 1.65 1.65 1.65Zm-.48 16.8h.9c.48 0 .78-.27.78-.78V42.77c0-.48-.3-.78-.78-.78h-.9c-.48 0-.78.27-.78.78v12.45c0 .48.3.78.78.78Zm4.561 0h.96c.42 0 .72-.12.96-.48l3.75-5.25 3.81 5.25c.24.36.54.48.96.48h1.02c.42 0 .66-.21.66-.48 0-.15-.03-.3-.18-.48l-4.71-6.33 4.29-5.76c.12-.18.18-.33.18-.48 0-.27-.24-.48-.66-.48h-.9c-.42 0-.72.12-.96.48l-3.39 4.77-3.45-4.77c-.24-.36-.54-.48-.96-.48h-.99c-.42 0-.66.21-.66.48 0 .15.06.3.18.48l4.29 5.76-4.68 6.33a.69.69 0 0 0-.18.48c0 .27.24.48.66.48Zm20.116.33c2.37 0 4.2-.72 5.46-2.34.12-.15.15-.3.15-.42 0-.24-.12-.45-.33-.63l-.36-.3c-.18-.15-.33-.21-.51-.21-.21 0-.36.12-.57.3-.9.87-2.07 1.41-3.84 1.41-2.79 0-4.44-1.95-4.65-4.53h9.93c.48 0 .78-.3.78-.78v-.18c0-4.35-2.37-6.99-6.3-6.99-4.08 0-6.81 3.3-6.81 7.35 0 4.29 2.61 7.32 7.05 7.32Zm-4.56-8.76c.45-2.4 2.07-3.75 4.32-3.75 2.34 0 3.54 1.44 3.75 3.75h-8.07Zm26.591 14.55c2.16 0 4.59-1.44 4.59-3.87 0-3.03-1.92-4.08-5.46-4.08h-2.13c-1.53 0-2.19-.27-2.19-1.08 0-.87.66-1.26 3.63-1.26 3.72 0 6.18-2.04 6.18-5.1 0-.66-.12-1.26-.33-1.83 1.08-.69 1.65-1.83 1.65-2.82v-.18c0-.45-.21-.72-.72-.72h-.54c-.48 0-.72.27-.81.75-.12.57-.33 1.02-.66 1.35-1.08-1.02-2.73-1.62-4.77-1.62-3.78 0-6.27 2.04-6.27 5.07 0 1.89.93 3.36 2.49 4.23-1.65.63-2.16 1.59-2.16 2.55 0 1.86 1.23 2.91 3.75 2.91h2.4c2.76 0 3.39.63 3.39 1.92 0 .9-.6 1.62-2.04 1.8-.51.06-.78.33-.78.81v.39c0 .51.27.78.78.78Zm-1.56-12.36c-2.55 0-3.9-1.17-3.9-3.03 0-1.86 1.38-3 3.9-3 2.49 0 3.81 1.14 3.81 3 0 1.89-1.35 3.03-3.81 3.03ZM262.231 56h.9c.48 0 .78-.27.78-.78v-6.39c0-3.24 1.92-4.83 4.26-4.83.27 0 .54.03.78.09.12.03.24.03.33.03.33 0 .54-.12.69-.48l.27-.69c.06-.15.09-.3.09-.42 0-.27-.09-.51-.42-.63-.42-.15-.84-.24-1.47-.24-1.98 0-3.6.99-4.65 2.55-.03-.51-.09-1.02-.21-1.56-.09-.45-.42-.66-.87-.66h-.48c-.48 0-.78.27-.78.78v12.45c0 .48.3.78.78.78Zm14.24-16.44 4.08-2.61c.24-.15.39-.36.39-.6 0-.15-.06-.3-.18-.48l-.3-.42c-.15-.24-.36-.36-.6-.36-.15 0-.3.06-.48.18l-3.99 2.7c-.24.15-.36.36-.36.57 0 .15.06.33.18.51l.18.3c.18.24.39.36.6.36.15 0 .33-.06.48-.15Zm-.36 16.77c2.58 0 4.23-1.08 5.13-2.49.03.48.12.99.21 1.5.09.48.42.66.87.66h.42c.48 0 .78-.3.78-.78v-7.56c0-4.05-2.76-6-5.94-6-2.28 0-3.9.45-5.49 1.74-.21.18-.33.36-.33.57 0 .18.09.36.24.54l.3.36c.18.21.36.3.57.3.18 0 .33-.06.51-.18 1.29-.9 2.52-1.17 4.02-1.17 2.07 0 3.72 1.08 3.72 4.17v.36c-1.23-.48-2.64-.72-4.17-.72-3.9 0-5.88 1.92-5.88 4.5 0 2.46 1.83 4.2 5.04 4.2Zm.24-2.13c-1.56 0-2.88-.48-2.88-2.13 0-1.53.96-2.46 3.84-2.46 1.35 0 2.49.15 3.81.54v.18c-.09 2.25-1.83 3.87-4.77 3.87Zm17.106 2.13c1.32 0 2.46-.39 3.39-1.11.18-.15.27-.3.27-.48s-.06-.36-.18-.54l-.24-.39c-.15-.24-.36-.36-.57-.36-.15 0-.33.06-.51.15-.6.33-1.32.54-2.01.54-2.13 0-3.18-1.32-3.18-3.96v-6h5.19c.48 0 .78-.3.78-.78v-.63c0-.48-.3-.78-.78-.78h-5.19v-3.18c0-.48-.3-.78-.78-.78h-.9c-.48 0-.78.27-.78.78v3.18h-2.1c-.48 0-.78.3-.78.78v.63c0 .48.27.78.78.78h2.1V50c0 4.32 2.07 6.33 5.49 6.33Zm6.816-17.13c.93 0 1.59-.72 1.59-1.65 0-.93-.66-1.65-1.59-1.65-.96 0-1.65.72-1.65 1.65 0 .93.69 1.65 1.65 1.65Zm-.48 16.8h.9c.48 0 .78-.27.78-.78V42.77c0-.48-.3-.78-.78-.78h-.9c-.48 0-.78.27-.78.78v12.45c0 .48.3.78.78.78Zm10.262.33c3.36 0 5.28-1.86 5.28-4.32 0-3.03-2.52-3.84-5.04-4.23-2.19-.33-3.3-.63-3.3-2.04 0-.99.69-1.89 2.85-1.89 1.41 0 2.43.21 3.45 1.02.18.15.36.21.54.21.21 0 .39-.09.57-.27l.3-.33c.15-.18.24-.39.24-.57 0-.18-.09-.36-.27-.54-1.2-1.11-2.64-1.71-4.71-1.71-3.3 0-5.37 1.8-5.37 4.02 0 3.12 2.25 3.84 4.92 4.2 2.01.27 3.33.84 3.33 2.28 0 1.41-1.17 1.98-2.97 1.98-1.53 0-2.85-.27-3.96-1.11-.21-.15-.39-.21-.54-.21-.21 0-.39.09-.57.3l-.24.3c-.15.18-.24.39-.24.57 0 .18.09.33.27.51 1.29 1.17 3 1.83 5.46 1.83Zm14.556-.33h.9c.48 0 .78-.27.78-.78v-6.51c0-3.03 1.77-4.86 4.53-4.86 2.13 0 3.39 1.35 3.39 4.02v7.35c0 .48.3.78.78.78h.9c.48 0 .78-.3.78-.78v-7.23c0-4.32-2.16-6.33-5.64-6.33-2.13 0-3.81.99-4.83 2.55-.03-.54-.06-1.05-.21-1.59-.12-.45-.42-.63-.87-.63h-.51c-.48 0-.78.27-.78.78v12.45c0 .48.3.78.78.78Zm19.769.33c2.58 0 4.23-1.08 5.13-2.49.03.48.12.99.21 1.5.09.48.42.66.87.66h.42c.48 0 .78-.3.78-.78v-7.56c0-4.05-2.76-6-5.94-6-2.28 0-3.9.45-5.49 1.74-.21.18-.33.36-.33.57 0 .18.09.36.24.54l.3.36c.18.21.36.3.57.3.18 0 .33-.06.51-.18 1.29-.9 2.52-1.17 4.02-1.17 2.07 0 3.72 1.08 3.72 4.17v.36c-1.23-.48-2.64-.72-4.17-.72-3.9 0-5.88 1.92-5.88 4.5 0 2.46 1.83 4.2 5.04 4.2Zm.24-2.13c-1.56 0-2.88-.48-2.88-2.13 0-1.53.96-2.46 3.84-2.46 1.35 0 2.49.15 3.81.54v.18c-.09 2.25-1.83 3.87-4.77 3.87Z" fill="#fff" fill-opacity=".5"/><path d="M171.8 111h3.472c1.176 0 1.96-.56 2.352-1.68l2.408-6.664h14.224l2.464 6.664c.336 1.12 1.12 1.68 2.352 1.68h3.696c1.176 0 1.848-.56 1.848-1.512 0-.224-.056-.56-.168-.896l-12.04-30.912c-.392-1.12-1.232-1.624-2.408-1.624h-5.432c-1.232 0-1.96.504-2.408 1.624l-11.984 30.912a2.133 2.133 0 0 0-.224.952c0 .896.672 1.456 1.848 1.456Zm10.36-14.896 4.984-13.44 4.984 13.44h-9.968Zm27.122 25.76h3.528c1.288 0 2.072-.728 2.072-2.072v-11.704c2.016 2.184 4.816 3.528 8.344 3.528 7.504 0 12.376-5.712 12.376-13.888 0-8.064-4.592-13.944-12.152-13.944-3.696 0-6.888 1.624-9.128 4.256-.056-.728-.168-1.4-.392-2.24-.28-.952-1.064-1.4-2.24-1.4h-2.408c-1.288 0-2.072.728-2.072 2.072v33.32c0 1.344.784 2.072 2.072 2.072Zm12.376-16.8c-3.64 0-6.776-2.184-6.776-7.056v-.952c0-4.256 2.912-6.72 6.888-6.72 3.36 0 6.16 2.184 6.16 7.504 0 5.264-3.024 7.224-6.272 7.224Zm20.165 16.8h3.528c1.288 0 2.072-.728 2.072-2.072v-11.704c2.016 2.184 4.816 3.528 8.344 3.528 7.504 0 12.376-5.712 12.376-13.888 0-8.064-4.592-13.944-12.152-13.944-3.696 0-6.888 1.624-9.128 4.256-.056-.728-.168-1.4-.392-2.24-.28-.952-1.064-1.4-2.24-1.4h-2.408c-1.288 0-2.072.728-2.072 2.072v33.32c0 1.344.784 2.072 2.072 2.072Zm12.376-16.8c-3.64 0-6.776-2.184-6.776-7.056v-.952c0-4.256 2.912-6.72 6.888-6.72 3.36 0 6.16 2.184 6.16 7.504 0 5.264-3.024 7.224-6.272 7.224Zm41.973 6.552c8.512 0 14-3.528 14-10.472 0-7.056-5.096-9.632-12.824-11.2-5.096-1.064-7.448-1.68-7.448-4.256 0-2.072 1.792-3.36 6.16-3.36 2.968 0 5.376.616 8.008 2.632.504.392.952.56 1.4.56.56 0 1.064-.224 1.512-.728l1.512-1.736c.448-.504.672-1.008.672-1.456 0-.504-.28-1.008-.728-1.512-3.528-3.248-7.728-4.592-12.656-4.592-7.784 0-13.608 3.976-13.608 10.36 0 6.72 4.76 9.408 12.992 10.808 5.32 1.008 7.168 2.128 7.168 4.536 0 2.016-1.4 3.528-5.992 3.528-3.808 0-7.28-1.12-10.416-3.696-.504-.392-1.008-.616-1.456-.616-.504 0-1.008.28-1.456.784l-1.568 1.792c-.392.448-.616.952-.616 1.456s.224 1.008.672 1.456c3.808 3.864 9.016 5.712 14.672 5.712Zm31.683 0c3.024 0 5.6-.84 7.616-2.352.392-.336.616-.728.616-1.232 0-.448-.168-.952-.504-1.456l-.952-1.456c-.448-.672-1.008-.952-1.624-.952-.336 0-.784.112-1.232.28a6.497 6.497 0 0 1-2.688.616c-3.08 0-4.816-1.792-4.816-5.6v-8.68h8.456c1.344 0 2.072-.728 2.072-2.072v-2.24c0-1.344-.728-2.072-2.072-2.072h-8.456v-5.096c0-1.344-.728-2.072-2.072-2.072h-3.528c-1.288 0-2.072.728-2.072 2.072V84.4h-3.136c-1.344 0-2.072.728-2.072 2.072v2.24c0 1.344.728 2.072 2.072 2.072h3.136v8.4c0 8.68 4.088 12.432 11.256 12.432Zm23.224 0c8.512 0 14.112-6.552 14.112-13.944 0-7.728-5.376-13.888-14.112-13.888-8.624 0-14.28 6.44-14.28 13.888 0 7.784 5.432 13.944 14.28 13.944Zm-.056-6.552c-4.48 0-6.496-3.584-6.496-7.392 0-3.752 2.016-7.336 6.552-7.336 4.368 0 6.384 3.528 6.384 7.336 0 3.808-2.016 7.392-6.44 7.392ZM371.445 111h3.528c1.344 0 2.072-.728 2.072-2.072V98.456c0-5.656 3.248-7.952 6.832-7.952.616 0 1.12.056 1.624.168.168.056.392.056.56.056.728 0 1.176-.336 1.568-1.344l.952-2.464c.168-.392.28-.728.28-1.064 0-.728-.336-1.344-1.176-1.624-.84-.28-1.736-.448-3.024-.448-3.584 0-6.328 1.68-8.176 4.368a16.702 16.702 0 0 0-.336-2.24c-.28-1.064-1.064-1.512-2.296-1.512h-2.408c-1.288 0-2.072.728-2.072 2.072v22.456c0 1.288.784 2.072 2.072 2.072Zm31.637.616c4.536 0 8.456-1.344 11.032-4.48.336-.392.504-.784.504-1.176 0-.56-.336-1.12-.952-1.624l-1.12-.952c-.448-.392-.896-.616-1.344-.616-.504 0-1.008.336-1.568.784-1.456 1.288-3.192 1.904-5.992 1.904-3.976 0-6.664-2.296-7.224-5.992h17.024c1.288 0 1.848-.952 1.848-1.736v-.336c0-7.616-4.088-13.608-12.712-13.608-8.288 0-13.384 6.552-13.384 13.944 0 8.176 5.096 13.888 13.888 13.888ZM396.53 94.48c.672-3.304 2.912-4.984 6.216-4.984 3.136 0 4.984 1.512 5.32 4.984H396.53Z" fill="#fff"/></svg>