<svg width="548" height="156" fill="none" xmlns="http://www.w3.org/2000/svg"><rect width="548" height="156" rx="40" fill="#27292F"/><path d="M175.54 56h6.27c4.14 0 6.84-1.59 6.84-5.04 0-2.43-1.44-3.9-3.63-4.59 1.74-.66 2.97-1.98 2.97-4.2 0-3.18-2.34-4.89-6.48-4.89h-5.97c-.48 0-.78.27-.78.78v17.16c0 .48.27.78.78.78Zm1.62-10.53V39.5h4.11c2.76 0 4.38.72 4.38 2.88 0 2.13-1.56 3.09-4.38 3.09h-4.11Zm0 8.31v-6.06h4.41c2.97 0 4.68.96 4.68 3.15 0 2.13-1.71 2.91-4.68 2.91h-4.41Zm17.937 2.55c2.58 0 4.23-1.08 5.13-2.49.03.48.12.99.21 1.5.09.48.42.66.87.66h.42c.48 0 .78-.3.78-.78v-7.56c0-4.05-2.76-6-5.94-6-2.28 0-3.9.45-5.49 1.74-.21.18-.33.36-.33.57 0 .18.09.36.24.54l.3.36c.18.21.36.3.57.3.18 0 .33-.06.51-.18 1.29-.9 2.52-1.17 4.02-1.17 2.07 0 3.72 1.08 3.72 4.17v.36c-1.23-.48-2.64-.72-4.17-.72-3.9 0-5.88 1.92-5.88 4.5 0 2.46 1.83 4.2 5.04 4.2Zm.24-2.13c-1.56 0-2.88-.48-2.88-2.13 0-1.53.96-2.46 3.84-2.46 1.35 0 2.49.15 3.81.54v.18c-.09 2.25-1.83 3.87-4.77 3.87Zm11.939-15c.93 0 1.59-.72 1.59-1.65 0-.93-.66-1.65-1.59-1.65-.96 0-1.65.72-1.65 1.65 0 .93.69 1.65 1.65 1.65Zm-.48 16.8h.9c.48 0 .78-.27.78-.78V42.77c0-.48-.3-.78-.78-.78h-.9c-.48 0-.78.27-.78.78v12.45c0 .48.3.78.78.78Zm4.561 0h.96c.42 0 .72-.12.96-.48l3.75-5.25 3.81 5.25c.24.36.54.48.96.48h1.02c.42 0 .66-.21.66-.48 0-.15-.03-.3-.18-.48l-4.71-6.33 4.29-5.76c.12-.18.18-.33.18-.48 0-.27-.24-.48-.66-.48h-.9c-.42 0-.72.12-.96.48l-3.39 4.77-3.45-4.77c-.24-.36-.54-.48-.96-.48h-.99c-.42 0-.66.21-.66.48 0 .15.06.3.18.48l4.29 5.76-4.68 6.33a.69.69 0 0 0-.18.48c0 .27.24.48.66.48Zm20.116.33c2.37 0 4.2-.72 5.46-2.34.12-.15.15-.3.15-.42 0-.24-.12-.45-.33-.63l-.36-.3c-.18-.15-.33-.21-.51-.21-.21 0-.36.12-.57.3-.9.87-2.07 1.41-3.84 1.41-2.79 0-4.44-1.95-4.65-4.53h9.93c.48 0 .78-.3.78-.78v-.18c0-4.35-2.37-6.99-6.3-6.99-4.08 0-6.81 3.3-6.81 7.35 0 4.29 2.61 7.32 7.05 7.32Zm-4.56-8.76c.45-2.4 2.07-3.75 4.32-3.75 2.34 0 3.54 1.44 3.75 3.75h-8.07Zm26.591 14.55c2.16 0 4.59-1.44 4.59-3.87 0-3.03-1.92-4.08-5.46-4.08h-2.13c-1.53 0-2.19-.27-2.19-1.08 0-.87.66-1.26 3.63-1.26 3.72 0 6.18-2.04 6.18-5.1 0-.66-.12-1.26-.33-1.83 1.08-.69 1.65-1.83 1.65-2.82v-.18c0-.45-.21-.72-.72-.72h-.54c-.48 0-.72.27-.81.75-.12.57-.33 1.02-.66 1.35-1.08-1.02-2.73-1.62-4.77-1.62-3.78 0-6.27 2.04-6.27 5.07 0 1.89.93 3.36 2.49 4.23-1.65.63-2.16 1.59-2.16 2.55 0 1.86 1.23 2.91 3.75 2.91h2.4c2.76 0 3.39.63 3.39 1.92 0 .9-.6 1.62-2.04 1.8-.51.06-.78.33-.78.81v.39c0 .51.27.78.78.78Zm-1.56-12.36c-2.55 0-3.9-1.17-3.9-3.03 0-1.86 1.38-3 3.9-3 2.49 0 3.81 1.14 3.81 3 0 1.89-1.35 3.03-3.81 3.03ZM262.231 56h.9c.48 0 .78-.27.78-.78v-6.39c0-3.24 1.92-4.83 4.26-4.83.27 0 .54.03.78.09.12.03.24.03.33.03.33 0 .54-.12.69-.48l.27-.69c.06-.15.09-.3.09-.42 0-.27-.09-.51-.42-.63-.42-.15-.84-.24-1.47-.24-1.98 0-3.6.99-4.65 2.55-.03-.51-.09-1.02-.21-1.56-.09-.45-.42-.66-.87-.66h-.48c-.48 0-.78.27-.78.78v12.45c0 .48.3.78.78.78Zm14.24-16.44 4.08-2.61c.24-.15.39-.36.39-.6 0-.15-.06-.3-.18-.48l-.3-.42c-.15-.24-.36-.36-.6-.36-.15 0-.3.06-.48.18l-3.99 2.7c-.24.15-.36.36-.36.57 0 .15.06.33.18.51l.18.3c.18.24.39.36.6.36.15 0 .33-.06.48-.15Zm-.36 16.77c2.58 0 4.23-1.08 5.13-2.49.03.48.12.99.21 1.5.09.48.42.66.87.66h.42c.48 0 .78-.3.78-.78v-7.56c0-4.05-2.76-6-5.94-6-2.28 0-3.9.45-5.49 1.74-.21.18-.33.36-.33.57 0 .18.09.36.24.54l.3.36c.18.21.36.3.57.3.18 0 .33-.06.51-.18 1.29-.9 2.52-1.17 4.02-1.17 2.07 0 3.72 1.08 3.72 4.17v.36c-1.23-.48-2.64-.72-4.17-.72-3.9 0-5.88 1.92-5.88 4.5 0 2.46 1.83 4.2 5.04 4.2Zm.24-2.13c-1.56 0-2.88-.48-2.88-2.13 0-1.53.96-2.46 3.84-2.46 1.35 0 2.49.15 3.81.54v.18c-.09 2.25-1.83 3.87-4.77 3.87Zm17.106 2.13c1.32 0 2.46-.39 3.39-1.11.18-.15.27-.3.27-.48s-.06-.36-.18-.54l-.24-.39c-.15-.24-.36-.36-.57-.36-.15 0-.33.06-.51.15-.6.33-1.32.54-2.01.54-2.13 0-3.18-1.32-3.18-3.96v-6h5.19c.48 0 .78-.3.78-.78v-.63c0-.48-.3-.78-.78-.78h-5.19v-3.18c0-.48-.3-.78-.78-.78h-.9c-.48 0-.78.27-.78.78v3.18h-2.1c-.48 0-.78.3-.78.78v.63c0 .48.27.78.78.78h2.1V50c0 4.32 2.07 6.33 5.49 6.33Zm6.816-17.13c.93 0 1.59-.72 1.59-1.65 0-.93-.66-1.65-1.59-1.65-.96 0-1.65.72-1.65 1.65 0 .93.69 1.65 1.65 1.65Zm-.48 16.8h.9c.48 0 .78-.27.78-.78V42.77c0-.48-.3-.78-.78-.78h-.9c-.48 0-.78.27-.78.78v12.45c0 .48.3.78.78.78Zm10.262.33c3.36 0 5.28-1.86 5.28-4.32 0-3.03-2.52-3.84-5.04-4.23-2.19-.33-3.3-.63-3.3-2.04 0-.99.69-1.89 2.85-1.89 1.41 0 2.43.21 3.45 1.02.18.15.36.21.54.21.21 0 .39-.09.57-.27l.3-.33c.15-.18.24-.39.24-.57 0-.18-.09-.36-.27-.54-1.2-1.11-2.64-1.71-4.71-1.71-3.3 0-5.37 1.8-5.37 4.02 0 3.12 2.25 3.84 4.92 4.2 2.01.27 3.33.84 3.33 2.28 0 1.41-1.17 1.98-2.97 1.98-1.53 0-2.85-.27-3.96-1.11-.21-.15-.39-.21-.54-.21-.21 0-.39.09-.57.3l-.24.3c-.15.18-.24.39-.24.57 0 .18.09.33.27.51 1.29 1.17 3 1.83 5.46 1.83Zm14.556-.33h.9c.48 0 .78-.27.78-.78v-6.51c0-3.03 1.77-4.86 4.53-4.86 2.13 0 3.39 1.35 3.39 4.02v7.35c0 .48.3.78.78.78h.9c.48 0 .78-.3.78-.78v-7.23c0-4.32-2.16-6.33-5.64-6.33-2.13 0-3.81.99-4.83 2.55-.03-.54-.06-1.05-.21-1.59-.12-.45-.42-.63-.87-.63h-.51c-.48 0-.78.27-.78.78v12.45c0 .48.3.78.78.78Zm19.769.33c2.58 0 4.23-1.08 5.13-2.49.03.48.12.99.21 1.5.09.48.42.66.87.66h.42c.48 0 .78-.3.78-.78v-7.56c0-4.05-2.76-6-5.94-6-2.28 0-3.9.45-5.49 1.74-.21.18-.33.36-.33.57 0 .18.09.36.24.54l.3.36c.18.21.36.3.57.3.18 0 .33-.06.51-.18 1.29-.9 2.52-1.17 4.02-1.17 2.07 0 3.72 1.08 3.72 4.17v.36c-1.23-.48-2.64-.72-4.17-.72-3.9 0-5.88 1.92-5.88 4.5 0 2.46 1.83 4.2 5.04 4.2Zm.24-2.13c-1.56 0-2.88-.48-2.88-2.13 0-1.53.96-2.46 3.84-2.46 1.35 0 2.49.15 3.81.54v.18c-.09 2.25-1.83 3.87-4.77 3.87Z" fill="#fff" fill-opacity=".5"/><path d="M188.88 111.616c10.416 0 16.744-6.496 16.744-16.856v-.784c0-1.12-.728-1.848-2.128-1.848h-11.424c-1.288 0-2.072.728-2.072 2.072v1.848c0 1.344.784 2.128 2.072 2.128h6.048c-.616 4.424-4.256 6.664-8.736 6.664-6.664 0-10.08-4.704-10.08-11.144 0-6.384 3.304-11.312 10.36-11.312 3.416 0 5.88 1.232 7.672 3.024.56.504 1.064.84 1.624.84.392 0 .84-.168 1.288-.504l1.96-1.456c.672-.504.952-1.064.952-1.624 0-.392-.112-.784-.448-1.232-2.912-4.088-7.784-5.936-13.048-5.936-11.816 0-18.2 8.792-18.2 17.976 0 10.696 6.16 18.144 17.416 18.144Zm33.672 0c8.512 0 14.112-6.552 14.112-13.944 0-7.728-5.376-13.888-14.112-13.888-8.624 0-14.28 6.44-14.28 13.888 0 7.784 5.432 13.944 14.28 13.944Zm-.056-6.552c-4.48 0-6.496-3.584-6.496-7.392 0-3.752 2.016-7.336 6.552-7.336 4.368 0 6.384 3.528 6.384 7.336 0 3.808-2.016 7.392-6.44 7.392Zm31.23 6.552c8.512 0 14.112-6.552 14.112-13.944 0-7.728-5.376-13.888-14.112-13.888-8.624 0-14.28 6.44-14.28 13.888 0 7.784 5.432 13.944 14.28 13.944Zm-.056-6.552c-4.48 0-6.496-3.584-6.496-7.392 0-3.752 2.016-7.336 6.552-7.336 4.368 0 6.384 3.528 6.384 7.336 0 3.808-2.016 7.392-6.44 7.392Zm33.47 17.304c4.536 0 9.464-2.912 9.464-8.064 0-5.6-3.92-7.84-10.416-7.84h-5.096c-2.128 0-3.304-.336-3.304-1.68 0-1.344 1.176-1.848 6.048-1.848 7.84 0 12.32-3.752 12.32-9.464a8.378 8.378 0 0 0-.504-2.912c2.408-1.568 3.528-3.64 3.528-5.824v-.28c0-1.064-.616-1.68-1.96-1.68h-1.12c-1.288 0-1.904.728-2.184 1.96-.168.784-.448 1.456-.896 1.96-2.128-1.792-5.208-2.912-9.184-2.912-8.232 0-12.768 3.976-12.768 9.688 0 3.248 1.456 5.824 4.088 7.448-2.576 1.344-3.64 3.36-3.64 5.488 0 4.312 3.08 6.328 8.008 6.328h4.76c4.368 0 5.264.728 5.264 2.464 0 1.12-.728 1.96-2.52 2.24-1.344.224-2.016.896-2.016 2.184v.728c0 1.344.784 2.016 2.128 2.016Zm-3.416-24.64c-3.696 0-5.208-1.904-5.208-4.368 0-2.464 1.568-4.256 5.208-4.256 3.416 0 4.984 1.736 4.984 4.256 0 2.576-1.512 4.368-4.984 4.368ZM303.79 111h3.528c1.344 0 2.072-.784 2.072-2.072v-33.6c0-1.344-.728-2.072-2.072-2.072h-3.528c-1.288 0-2.072.728-2.072 2.072v33.6c0 1.288.784 2.072 2.072 2.072Zm23.707.616c4.536 0 8.456-1.344 11.032-4.48.336-.392.504-.784.504-1.176 0-.56-.336-1.12-.952-1.624l-1.12-.952c-.448-.392-.896-.616-1.344-.616-.504 0-1.008.336-1.568.784-1.456 1.288-3.192 1.904-5.992 1.904-3.976 0-6.664-2.296-7.224-5.992h17.024c1.288 0 1.848-.952 1.848-1.736v-.336c0-7.616-4.088-13.608-12.712-13.608-8.288 0-13.384 6.552-13.384 13.944 0 8.176 5.096 13.888 13.888 13.888Zm-6.552-17.136c.672-3.304 2.912-4.984 6.216-4.984 3.136 0 4.984 1.512 5.32 4.984h-11.536ZM357.511 111h3.584c1.288 0 2.072-.728 2.072-2.072v-9.072c1.96.392 4.312.616 6.272.616 7.784 0 13.776-4.48 13.776-12.04 0-7.448-4.928-12.376-14.056-12.376h-11.648c-1.288 0-2.072.728-2.072 2.072v30.8c0 1.288.728 2.072 2.072 2.072Zm11.256-17.192c-2.072 0-3.808-.112-5.6-.448V82.776h5.544c4.144 0 6.664 1.848 6.664 5.488 0 3.528-2.576 5.544-6.608 5.544ZM389.056 111h3.528c1.344 0 2.072-.784 2.072-2.072v-33.6c0-1.344-.728-2.072-2.072-2.072h-3.528c-1.288 0-2.072.728-2.072 2.072v33.6c0 1.288.784 2.072 2.072 2.072Zm19.34.616c4.424 0 7.392-1.904 9.184-4.368.056.728.168 1.456.336 2.24.224 1.064 1.064 1.512 2.24 1.512h1.904c1.288 0 2.072-.784 2.072-2.072v-12.6c0-8.736-5.432-12.544-12.208-12.544-4.312 0-7.56.784-10.752 3.08-.616.448-.952.952-.952 1.512 0 .448.224.952.616 1.4l.952 1.232c.504.56.952.84 1.512.84.448 0 .896-.168 1.4-.448 2.072-1.176 4.032-1.512 6.216-1.512 3.64 0 5.992 1.904 5.992 6.048v.336c-2.128-.784-4.592-1.176-7.28-1.176-7.728 0-10.92 4.144-10.92 8.4 0 4.144 2.8 8.12 9.688 8.12Zm1.344-5.6c-2.296 0-3.92-.896-3.92-2.912 0-2.128 1.512-3.192 5.096-3.192 2.128 0 3.92.28 5.712.728l-.056.336c-.448 2.856-2.688 5.04-6.832 5.04Zm23.687 16.464c5.6 0 8.232-5.152 10.136-9.968l10.36-25.704c.112-.392.224-.672.224-1.008 0-.896-.672-1.4-1.848-1.4h-3.976c-1.176 0-2.016.504-2.352 1.68l-5.488 16.296-6.384-16.296c-.448-1.176-1.232-1.68-2.408-1.68h-4.032c-1.12 0-1.792.56-1.792 1.4 0 .336.056.672.224 1.064l10.752 23.688-.336.784c-1.064 2.968-2.184 4.704-4.2 4.704-.896 0-1.568-.224-2.24-.616-.504-.392-.952-.616-1.4-.616-.448 0-.896.224-1.344.672l-1.232 1.12c-.504.448-.784.952-.784 1.512 0 .448.224.896.616 1.344 1.848 2.072 4.2 3.024 7.504 3.024ZM61.4 42.2l34.65 34.4 9.5-9.5-42-24.25c-.7-.406-1.45-.631-2.15-.65Zm-2.9 1.6a3.945 3.945 0 0 0-.5 1.95v66.85c0 .538.112 1.019.3 1.45l35.45-35.2L58.5 43.8Zm49.95 24.95L98.3 78.85l10.15 10.05 12.4-7.1c1.763-1.019 2.013-2.312 2-3-.019-1.137-.737-2.2-1.95-2.85-1.056-.569-8.9-5.137-12.45-7.2ZM96.05 81.1 61.1 115.75c.581-.031 1.212-.156 1.8-.5 1.369-.794 29.05-16.8 29.05-16.8l13.65-7.85-9.55-9.5Z" fill="#fff"/></svg>